<svg width="23" height="22" viewBox="0 0 23 22" fill="none" xmlns="http://www.w3.org/2000/svg">
<path fill-rule="evenodd" clip-rule="evenodd" d="M16.75 0H5.75C2.72527 0 0.25 2.47417 0.25 5.5V16.5C0.25 19.5247 2.72527 22 5.75 22H16.75C19.7747 22 22.25 19.5247 22.25 16.5V5.5C22.25 2.47417 19.7747 0 16.75 0ZM11.2499 15.5831C8.71828 15.5831 6.6665 13.5305 6.6665 11C6.6665 8.46834 8.71828 6.41656 11.2499 6.41656C13.7805 6.41656 15.8334 8.46834 15.8334 11C15.8334 13.5305 13.7805 15.5831 11.2499 15.5831ZM15.8335 5.04156C15.8335 5.80084 16.4484 6.41656 17.2085 6.41656C17.9686 6.41656 18.5835 5.80084 18.5835 5.04156C18.5835 4.28229 17.9686 3.66656 17.2085 3.66656C16.4484 3.66656 15.8335 4.28229 15.8335 5.04156Z" fill="#0A142F"/>
</svg>
