<svg width="20" height="20" viewBox="0 0 20 20" fill="none" xmlns="http://www.w3.org/2000/svg">
<path d="M14.8125 9.31285H10.6875C10.6875 9.13037 10.8164 9.50619 10.6875 9.37715C10.5586 9.24812 10.8698 9.41219 10.6875 9.41219C10.5052 9.41219 10.8164 9.18382 10.6875 9.31285C10.6875 9.13037 10.5586 9.44189 10.6875 9.31285H9.3125H5.1875C5.00516 9.31285 4.8303 9.38519 4.70136 9.51422C4.57243 9.64326 4.5 9.81789 4.5 10.0004C4.5 10.1829 4.57243 10.3575 4.70136 10.4865C4.8303 10.6156 5.00516 10.6879 5.1875 10.6879H9.3125H10.6875C10.5586 10.5589 10.6875 10.8704 10.6875 10.6879C10.8164 10.8169 10.6875 10.4653 10.6875 10.5886C10.8698 10.5886 10.5586 10.6652 10.6875 10.5362C10.8164 10.4071 10.6875 10.1828 10.6875 10.0004V10.6879H14.8125C14.9948 10.6879 15.1697 10.6156 15.2986 10.4865C15.4276 10.3575 15.5 10.1829 15.5 10.0004C15.5 9.81789 15.4276 9.64326 15.2986 9.51422C15.1697 9.38519 14.9948 9.31285 14.8125 9.31285Z" fill="#40A826"/>
<rect x="0.75" y="0.75" width="18.5" height="18.5" rx="4.25" stroke="#40A826" stroke-width="1.5"/>
</svg>
