<svg width="20" height="20" viewBox="0 0 20 20" fill="none" xmlns="http://www.w3.org/2000/svg">
<path d="M14.8125 9.3125H10.6875V5.1875C10.6875 5.00516 10.6151 4.8303 10.4861 4.70136C10.3572 4.57243 10.1823 4.5 10 4.5C9.81766 4.5 9.6428 4.57243 9.51386 4.70136C9.38493 4.8303 9.3125 5.00516 9.3125 5.1875V9.3125H5.1875C5.00516 9.3125 4.8303 9.38493 4.70136 9.51386C4.57243 9.6428 4.5 9.81766 4.5 10C4.5 10.1823 4.57243 10.3572 4.70136 10.4861C4.8303 10.6151 5.00516 10.6875 5.1875 10.6875H9.3125V14.8125C9.3125 14.9948 9.38493 15.1697 9.51386 15.2986C9.6428 15.4276 9.81766 15.5 10 15.5C10.1823 15.5 10.3572 15.4276 10.4861 15.2986C10.6151 15.1697 10.6875 14.9948 10.6875 14.8125V10.6875H14.8125C14.9948 10.6875 15.1697 10.6151 15.2986 10.4861C15.4276 10.3572 15.5 10.1823 15.5 10C15.5 9.81766 15.4276 9.6428 15.2986 9.51386C15.1697 9.38493 14.9948 9.3125 14.8125 9.3125Z" fill="#40A826"/>
<rect x="0.75" y="0.75" width="18.5" height="18.5" rx="4.25" stroke="#40A826" stroke-width="1.5"/>
</svg>
