<svg width="20" height="20" viewBox="0 0 20 20" fill="none" xmlns="http://www.w3.org/2000/svg">
<path d="M8.77778 13.6C8.93985 13.6 9.09529 13.5368 9.2099 13.4243C9.3245 13.3117 9.38889 13.1591 9.38889 13V9.4C9.38889 9.24087 9.3245 9.08826 9.2099 8.97574C9.09529 8.86321 8.93985 8.8 8.77778 8.8C8.6157 8.8 8.46026 8.86321 8.34566 8.97574C8.23105 9.08826 8.16667 9.24087 8.16667 9.4V13C8.16667 13.1591 8.23105 13.3117 8.34566 13.4243C8.46026 13.5368 8.6157 13.6 8.77778 13.6ZM14.8889 6.4H12.4444V5.8C12.4444 5.32261 12.2513 4.86477 11.9075 4.52721C11.5637 4.18964 11.0973 4 10.6111 4H9.38889C8.90266 4 8.43634 4.18964 8.09253 4.52721C7.74871 4.86477 7.55556 5.32261 7.55556 5.8V6.4H5.11111C4.94903 6.4 4.7936 6.46321 4.67899 6.57574C4.56438 6.68826 4.5 6.84087 4.5 7C4.5 7.15913 4.56438 7.31174 4.67899 7.42426C4.7936 7.53679 4.94903 7.6 5.11111 7.6H5.72222V14.2C5.72222 14.6774 5.91538 15.1352 6.25919 15.4728C6.60301 15.8104 7.06933 16 7.55556 16H12.4444C12.9307 16 13.397 15.8104 13.7408 15.4728C14.0846 15.1352 14.2778 14.6774 14.2778 14.2V7.6H14.8889C15.051 7.6 15.2064 7.53679 15.321 7.42426C15.4356 7.31174 15.5 7.15913 15.5 7C15.5 6.84087 15.4356 6.68826 15.321 6.57574C15.2064 6.46321 15.051 6.4 14.8889 6.4ZM8.77778 5.8C8.77778 5.64087 8.84216 5.48826 8.95677 5.37574C9.07137 5.26321 9.22681 5.2 9.38889 5.2H10.6111C10.7732 5.2 10.9286 5.26321 11.0432 5.37574C11.1578 5.48826 11.2222 5.64087 11.2222 5.8V6.4H8.77778V5.8ZM13.0556 14.2C13.0556 14.3591 12.9912 14.5117 12.8766 14.6243C12.762 14.7368 12.6065 14.8 12.4444 14.8H7.55556C7.39348 14.8 7.23804 14.7368 7.12343 14.6243C7.00883 14.5117 6.94444 14.3591 6.94444 14.2V7.6H13.0556V14.2ZM11.2222 13.6C11.3843 13.6 11.5397 13.5368 11.6543 13.4243C11.7689 13.3117 11.8333 13.1591 11.8333 13V9.4C11.8333 9.24087 11.7689 9.08826 11.6543 8.97574C11.5397 8.86321 11.3843 8.8 11.2222 8.8C11.0601 8.8 10.9047 8.86321 10.7901 8.97574C10.6755 9.08826 10.6111 9.24087 10.6111 9.4V13C10.6111 13.1591 10.6755 13.3117 10.7901 13.4243C10.9047 13.5368 11.0601 13.6 11.2222 13.6Z" fill="black" fill-opacity="0.4"/>
<rect x="0.5" y="0.5" width="19" height="19" rx="4.5" stroke="black" stroke-opacity="0.4"/>
</svg>
