<svg width="22" height="22" viewBox="0 0 22 22" fill="none" xmlns="http://www.w3.org/2000/svg">
<path d="M19.7398 5.48277C19.7543 5.72397 19.7543 5.96379 19.7543 6.20361C19.7543 13.5429 15.2171 22 6.9251 22C4.37045 22 1.99715 21.089 0 19.5067C0.362711 19.5577 0.711989 19.5756 1.08925 19.5756C3.19723 19.5756 5.13729 18.699 6.68777 17.2036C4.70517 17.1526 3.04386 15.5538 2.47069 13.3541C2.74944 13.4051 3.02931 13.4395 3.32261 13.4395C3.72675 13.4395 4.13312 13.3706 4.51038 13.2507C2.4427 12.7352 0.894464 10.5011 0.894464 7.80241V7.73349C1.49562 8.1456 2.19306 8.40333 2.93192 8.43779C1.71728 7.44268 0.921331 5.74051 0.921331 3.81506C0.921331 2.78411 1.14411 1.83862 1.53481 1.01441C3.75473 4.38153 7.0919 6.58263 10.8332 6.82383C10.7638 6.41035 10.7212 5.98171 10.7212 5.55168C10.7212 2.49192 12.7318 0 15.2305 0C16.5291 0 17.7012 0.669841 18.5251 1.75316C19.5439 1.51197 20.5201 1.04749 21.3865 0.412104C21.0518 1.70079 20.3387 2.78411 19.4039 3.47187C20.3118 3.35058 21.1917 3.04185 22 2.61183C21.3865 3.71169 20.6197 4.69164 19.7398 5.48277Z" fill="#0A142F"/>
</svg>
