<svg width="26" height="27" viewBox="0 0 26 27" fill="none" xmlns="http://www.w3.org/2000/svg">
<g clip-path="url(#clip0_877_781)">
<path d="M25.9863 13.7527C25.9863 12.6465 25.8978 11.8393 25.7064 11.0022H13.259V15.9949H20.5653C20.4181 17.2357 19.6226 19.1043 17.8549 20.3599L17.8301 20.527L21.7658 23.621L22.0385 23.6486C24.5426 21.3017 25.9863 17.8486 25.9863 13.7527Z" fill="#4285F4"/>
<path d="M13.259 26.9073C16.8385 26.9073 19.8435 25.7114 22.0385 23.6485L17.8549 20.3598C16.7354 21.1521 15.2328 21.7052 13.259 21.7052C9.75309 21.7052 6.77751 19.3583 5.7168 16.1145L5.56133 16.1279L1.46898 19.3418L1.41547 19.4928C3.59559 23.8876 8.07373 26.9073 13.259 26.9073Z" fill="#34A853"/>
<path d="M5.71679 16.1144C5.43691 15.2773 5.27494 14.3803 5.27494 13.4536C5.27494 12.5267 5.43691 11.6298 5.70207 10.7927L5.69465 10.6144L1.55103 7.34888L1.41545 7.41432C0.516922 9.23805 0.00134277 11.286 0.00134277 13.4536C0.00134277 15.6211 0.516922 17.669 1.41545 19.4927L5.71679 16.1144Z" fill="#FBBC05"/>
<path d="M13.259 5.20203C15.7484 5.20203 17.4277 6.29327 18.3852 7.20519L22.1268 3.49794C19.8289 1.33042 16.8385 0 13.259 0C8.07372 0 3.59559 3.01957 1.41547 7.41439L5.70208 10.7928C6.77751 7.54897 9.75309 5.20203 13.259 5.20203Z" fill="#EB4335"/>
</g>
<defs>
<clipPath id="clip0_877_781">
<rect width="26" height="27" fill="white"/>
</clipPath>
</defs>
</svg>
